# Wavefront OBJ exported by MilkShape 3D

v 1.362584 0.837414 -42.299278
v 2.000000 1.101441 -42.299278
v 2.000000 1.287415 -43.011864
v 1.362584 1.100720 -43.198555
v 1.098558 0.199999 -42.299278
v 1.098558 0.649998 -43.649277
v 1.362584 -0.437418 -42.299278
v 1.362584 0.199276 -44.099998
v 2.000000 -0.701444 -42.299278
v 2.000000 0.012581 -44.286697
v 2.637416 -0.437418 -42.299278
v 2.637416 0.199276 -44.099998
v 2.901442 0.199999 -42.299278
v 2.901442 0.649998 -43.649277
v 2.637416 0.837414 -42.299278
v 2.637416 1.100720 -43.198555
v 2.000000 1.999997 -43.197838
v 1.362584 1.999997 -43.461861
v 1.098558 1.999997 -44.099281
v 1.362584 1.999997 -44.736702
v 2.000000 1.999997 -45.000725
v 2.637416 1.999997 -44.736702
v 2.901442 1.999997 -44.099281
v 2.637416 1.999997 -43.461861
v 2.000000 2.999997 -43.197838
v 1.362584 2.999997 -43.461861
v 1.098558 2.999997 -44.099281
v 1.362584 2.999997 -44.736702
v 2.000000 2.999997 -45.000725
v 2.637416 2.999997 -44.736702
v 2.901442 2.999997 -44.099281
v 2.637416 2.999997 -43.461861
v 2.000000 3.712585 -43.011864
v 2.000000 3.898559 -42.299278
v 1.362584 4.162586 -42.299278
v 1.362584 3.899280 -43.198555
v 1.098558 4.800001 -42.299278
v 1.098558 4.350002 -43.649277
v 1.362584 5.437418 -42.299278
v 1.362584 4.800724 -44.099998
v 2.000000 5.701445 -42.299278
v 2.000000 4.987419 -44.286697
v 2.637416 5.437418 -42.299278
v 2.637416 4.800724 -44.099998
v 2.901442 4.800001 -42.299278
v 2.901442 4.350002 -43.649277
v 2.637416 4.162586 -42.299278
v 2.637416 3.899280 -43.198555
v 1.362584 0.837414 2.000723
v 2.000000 1.101441 2.000723
v 1.098558 0.199999 2.000723
v 1.362584 -0.437418 2.000723
v 2.000000 -0.701444 2.000723
v 2.637416 -0.437418 2.000723
v 2.901442 0.199999 2.000723
v 2.637416 0.837414 2.000723
v 2.000000 3.898559 2.000723
v 1.362584 4.162586 2.000723
v 1.098558 4.800001 2.000723
v 1.362584 5.437418 2.000723
v 2.000000 5.701445 2.000723
v 2.637416 5.437418 2.000723
v 2.901442 4.800001 2.000723
v 2.637416 4.162586 2.000723
v 2.000000 0.199999 2.000723
v 2.000000 4.800001 2.000723
v 1.698742 -7.500000 0.980769
v 1.961538 -7.500000 0.000000
v 1.961538 7.500000 0.000000
v 1.698742 7.500000 0.980769
v 0.980769 -7.500000 1.698742
v 0.980769 7.500000 1.698742
v 0.000000 -7.500000 1.961538
v 0.000000 7.500000 1.961538
v -0.980769 -7.500000 1.698742
v -0.980769 7.500000 1.698742
v -1.698742 -7.500000 0.980769
v -1.698742 7.500000 0.980769
v -1.961538 -7.500000 0.000000
v -1.961538 7.500000 0.000000
v -1.698742 -7.500000 -0.980769
v -1.698742 7.500000 -0.980769
v -0.980769 -7.500000 -1.698742
v -0.980769 7.500000 -1.698742
v 0.000000 -7.500000 -1.961538
v 0.000000 7.500000 -1.961538
v 0.980769 -7.500000 -1.698742
v 0.980769 7.500000 -1.698742
v 1.698742 -7.500000 -0.980769
v 1.698742 7.500000 -0.980769
v 0.000000 7.500000 0.000000
# 91 vertices

vt 0.125000 0.000000
vt 0.000000 0.000000
vt 0.250000 0.000000
vt 0.375000 0.000000
vt 0.500000 0.000000
vt 0.625000 0.000000
vt 0.750000 0.000000
vt 0.875000 0.000000
vt 1.000000 0.000000
vt 0.083333 1.000000
vt 0.000000 1.000000
vt 0.166667 1.000000
vt 0.250000 1.000000
vt 0.333333 1.000000
vt 0.416667 1.000000
vt 0.500000 1.000000
vt 0.583333 1.000000
vt 0.666667 1.000000
vt 0.750000 1.000000
vt 0.833333 1.000000
vt 0.916667 1.000000
vt 1.000000 1.000000
# 22 texture coordinates

vn -0.702062 0.703434 0.110860
vn -0.008834 0.991103 0.132803
vn -0.000001 0.707107 0.707107
vn -0.727459 0.442924 0.524044
vn -0.999768 0.003024 0.021343
vn -0.997753 -0.047621 0.047134
vn -0.702944 -0.703538 -0.104422
vn -0.720455 -0.518449 -0.460604
vn 0.005694 -0.985145 -0.171629
vn 0.000001 -0.707108 -0.707106
vn 0.703077 -0.697455 -0.138703
vn 0.720454 -0.460607 -0.518447
vn 0.999671 -0.002830 -0.025475
vn 0.997753 0.047134 -0.047620
vn 0.701205 0.707031 0.091755
vn 0.727460 0.524043 0.442923
vn 0.008834 0.132803 0.991103
vn -0.701204 0.091755 0.707032
vn -0.999671 -0.025475 -0.002830
vn -0.703077 -0.138705 -0.697455
vn -0.005693 -0.171630 -0.985145
vn 0.702943 -0.104423 -0.703539
vn 0.999768 0.021343 0.003024
vn 0.702061 0.110860 0.703434
vn -0.128696 -0.131703 0.982900
vn -0.791932 -0.090940 0.603800
vn -0.989793 0.025223 -0.140263
vn -0.599017 0.137450 -0.788851
vn 0.132551 0.170118 -0.976468
vn 0.793483 0.103438 -0.599737
vn 0.989869 -0.021131 0.140400
vn 0.597843 -0.109787 0.794060
vn -0.000001 -0.707106 0.707108
vn 0.128698 -0.982899 0.131704
vn -0.597845 -0.794058 0.109788
vn -0.727459 -0.442924 0.524044
vn -0.989869 -0.140401 0.021132
vn -0.997753 0.047621 0.047134
vn -0.793484 0.599737 -0.103437
vn -0.720455 0.518448 -0.460604
vn -0.132552 0.976468 -0.170117
vn 0.000001 0.707107 -0.707106
vn 0.599018 0.788851 -0.137449
vn 0.720454 0.460606 -0.518448
vn 0.989793 0.140263 -0.025223
vn 0.997753 -0.047134 -0.047620
vn 0.791932 -0.603800 0.090940
vn 0.727460 -0.524043 0.442924
vn -0.603748 0.797175 0.000000
vn 0.136774 0.990602 0.000000
vn -0.990602 0.136774 0.000000
vn -0.797175 -0.603748 0.000000
vn -0.136774 -0.990602 0.000000
vn 0.603748 -0.797175 0.000000
vn 0.990602 -0.136773 0.000000
vn 0.797175 0.603748 0.000000
vn 0.000000 0.000000 1.000000
vn 0.907073 0.000000 0.420974
vn 0.996035 0.000000 -0.088962
vn 0.996035 0.000000 0.088962
vn 0.818110 0.000000 0.575061
vn 0.575061 0.000000 0.818110
vn 0.420974 0.000000 0.907073
vn 0.088962 0.000000 0.996035
vn -0.088962 0.000000 0.996035
vn -0.420974 0.000000 0.907073
vn -0.575061 0.000000 0.818110
vn -0.818110 0.000000 0.575061
vn -0.907073 0.000000 0.420974
vn -0.996035 0.000000 0.088962
vn -0.996035 0.000000 -0.088962
vn -0.907073 0.000000 -0.420974
vn -0.818110 0.000000 -0.575061
vn -0.575061 0.000000 -0.818110
vn -0.420974 0.000000 -0.907073
vn -0.088962 0.000000 -0.996035
vn 0.088962 0.000000 -0.996035
vn 0.420974 0.000000 -0.907073
vn 0.575061 0.000000 -0.818110
vn 0.818110 0.000000 -0.575061
vn 0.907073 0.000000 -0.420974
vn 0.000000 1.000000 0.000000
# 82 normals

g Diverter-T1
s 1
f 1/1/1 2/2/2 3/2/3
f 3/2/3 4/1/4 1/1/1
f 5/3/5 1/1/1 4/1/4
f 4/1/4 6/3/6 5/3/5
f 7/4/7 5/3/5 6/3/6
f 6/3/6 8/4/8 7/4/7
f 9/5/9 7/4/7 8/4/8
f 8/4/8 10/5/10 9/5/9
f 11/6/11 9/5/9 10/5/10
f 10/5/10 12/6/12 11/6/11
f 13/7/13 11/6/11 12/6/12
f 12/6/12 14/7/14 13/7/13
f 15/8/15 13/7/13 14/7/14
f 14/7/14 16/8/16 15/8/15
f 2/9/2 15/8/15 16/8/16
f 16/8/16 3/2/3 2/9/2
f 4/1/4 3/2/3 17/2/17
f 17/2/17 18/1/18 4/1/4
f 6/3/6 4/1/4 18/1/18
f 18/1/18 19/3/19 6/3/6
f 8/4/8 6/3/6 19/3/19
f 19/3/19 20/4/20 8/4/8
f 10/5/10 8/4/8 20/4/20
f 20/4/20 21/5/21 10/5/10
f 12/6/12 10/5/10 21/5/21
f 21/5/21 22/6/22 12/6/12
f 14/7/14 12/6/12 22/6/22
f 22/6/22 23/7/23 14/7/14
f 16/8/16 14/7/14 23/7/23
f 23/7/23 24/8/24 16/8/16
f 3/2/3 16/8/16 24/8/24
f 24/8/24 17/2/17 3/2/3
f 18/1/18 17/2/17 25/2/25
f 25/2/25 26/1/26 18/1/18
f 19/3/19 18/1/18 26/1/26
f 26/1/26 27/3/27 19/3/19
f 20/4/20 19/3/19 27/3/27
f 27/3/27 28/4/28 20/4/20
f 21/5/21 20/4/20 28/4/28
f 28/4/28 29/5/29 21/5/21
f 22/6/22 21/5/21 29/5/29
f 29/5/29 30/6/30 22/6/22
f 23/7/23 22/6/22 30/6/30
f 30/6/30 31/7/31 23/7/23
f 24/8/24 23/7/23 31/7/31
f 31/7/31 32/8/32 24/8/24
f 17/2/17 24/8/24 32/8/32
f 32/8/32 25/2/25 17/2/17
f 33/2/33 34/2/34 35/1/35
f 35/1/35 36/1/36 33/2/33
f 36/1/36 35/1/35 37/3/37
f 37/3/37 38/3/38 36/1/36
f 38/3/38 37/3/37 39/4/39
f 39/4/39 40/4/40 38/3/38
f 40/4/40 39/4/39 41/5/41
f 41/5/41 42/5/42 40/4/40
f 42/5/42 41/5/41 43/6/43
f 43/6/43 44/6/44 42/5/42
f 44/6/44 43/6/43 45/7/45
f 45/7/45 46/7/46 44/6/44
f 46/7/46 45/7/45 47/8/47
f 47/8/47 48/8/48 46/7/46
f 48/8/48 47/8/47 34/9/34
f 34/9/34 33/2/33 48/8/48
f 25/2/25 33/2/33 36/1/36
f 36/1/36 26/1/26 25/2/25
f 26/1/26 36/1/36 38/3/38
f 38/3/38 27/3/27 26/1/26
f 27/3/27 38/3/38 40/4/40
f 40/4/40 28/4/28 27/3/27
f 28/4/28 40/4/40 42/5/42
f 42/5/42 29/5/29 28/4/28
f 29/5/29 42/5/42 44/6/44
f 44/6/44 30/6/30 29/5/29
f 30/6/30 44/6/44 46/7/46
f 46/7/46 31/7/31 30/6/30
f 31/7/31 46/7/46 48/8/48
f 48/8/48 32/8/32 31/7/31
f 32/8/32 48/8/48 33/2/33
f 33/2/33 25/2/25 32/8/32
f 2/2/2 1/1/1 49/1/49
f 49/1/49 50/2/50 2/2/2
f 1/1/1 5/3/5 51/3/51
f 51/3/51 49/1/49 1/1/1
f 5/3/5 7/4/7 52/4/52
f 52/4/52 51/3/51 5/3/5
f 7/4/7 9/5/9 53/5/53
f 53/5/53 52/4/52 7/4/7
f 9/5/9 11/6/11 54/6/54
f 54/6/54 53/5/53 9/5/9
f 11/6/11 13/7/13 55/7/55
f 55/7/55 54/6/54 11/6/11
f 13/7/13 15/8/15 56/8/56
f 56/8/56 55/7/55 13/7/13
f 15/8/15 2/9/2 50/2/50
f 50/2/50 56/8/56 15/8/15
f 35/1/35 34/2/34 57/2/53
f 57/2/53 58/1/52 35/1/35
f 37/3/37 35/1/35 58/1/52
f 58/1/52 59/3/51 37/3/37
f 39/4/39 37/3/37 59/3/51
f 59/3/51 60/4/49 39/4/39
f 41/5/41 39/4/39 60/4/49
f 60/4/49 61/5/50 41/5/41
f 43/6/43 41/5/41 61/5/50
f 61/5/50 62/6/56 43/6/43
f 45/7/45 43/6/43 62/6/56
f 62/6/56 63/7/55 45/7/45
f 47/8/47 45/7/45 63/7/55
f 63/7/55 64/8/54 47/8/47
f 34/9/34 47/8/47 64/8/54
f 64/8/54 57/2/53 34/9/34
s 2
f 50/2/57 49/1/57 65/1/57
f 49/1/57 51/3/57 65/3/57
f 51/3/57 52/4/57 65/4/57
f 52/4/57 53/5/57 65/5/57
f 53/5/57 54/6/57 65/6/57
f 54/6/57 55/7/57 65/7/57
f 55/7/57 56/8/57 65/8/57
f 56/8/57 50/2/57 65/2/57
f 58/1/57 57/2/57 66/2/57
f 59/3/57 58/1/57 66/1/57
f 60/4/57 59/3/57 66/3/57
f 61/5/57 60/4/57 66/4/57
f 62/6/57 61/5/57 66/5/57
f 63/7/57 62/6/57 66/6/57
f 64/8/57 63/7/57 66/7/57
f 57/2/57 64/8/57 66/8/57
s 1
f 67/10/58 68/11/59 69/11/60
f 69/11/60 70/10/61 67/10/58
f 71/12/62 67/10/58 70/10/61
f 70/10/61 72/12/63 71/12/62
f 73/13/64 71/12/62 72/12/63
f 72/12/63 74/13/65 73/13/64
f 75/14/66 73/13/64 74/13/65
f 74/13/65 76/14/67 75/14/66
f 77/15/68 75/14/66 76/14/67
f 76/14/67 78/15/69 77/15/68
f 79/16/70 77/15/68 78/15/69
f 78/15/69 80/16/71 79/16/70
f 81/17/72 79/16/70 80/16/71
f 80/16/71 82/17/73 81/17/72
f 83/18/74 81/17/72 82/17/73
f 82/17/73 84/18/75 83/18/74
f 85/19/76 83/18/74 84/18/75
f 84/18/75 86/19/77 85/19/76
f 87/20/78 85/19/76 86/19/77
f 86/19/77 88/20/79 87/20/78
f 89/21/80 87/20/78 88/20/79
f 88/20/79 90/21/81 89/21/80
f 68/22/59 89/21/80 90/21/81
f 90/21/81 69/11/60 68/22/59
s 2
f 70/10/82 69/11/82 91/11/82
f 72/12/82 70/10/82 91/10/82
f 74/13/82 72/12/82 91/12/82
f 76/14/82 74/13/82 91/13/82
f 78/15/82 76/14/82 91/14/82
f 80/16/82 78/15/82 91/15/82
f 82/17/82 80/16/82 91/16/82
f 84/18/82 82/17/82 91/17/82
f 86/19/82 84/18/82 91/18/82
f 88/20/82 86/19/82 91/19/82
f 90/21/82 88/20/82 91/20/82
f 69/11/82 90/21/82 91/21/82
# 164 triangles in group

# 164 triangles total

