# Wavefront OBJ exported by MilkShape 3D

mtllib SpinDisk.mtl

v 51.000000 -2.000000 0.000000
v 51.000000 2.000000 0.000000
v 50.225197 -2.000000 8.856057
v 50.225197 2.000000 8.856057
v 47.924324 -2.000000 17.443027
v 47.924324 2.000000 17.443027
v 44.167297 -2.000000 25.500000
v 44.167297 2.000000 25.500000
v 39.068268 -2.000000 32.782169
v 39.068268 2.000000 32.782169
v 32.782173 -2.000000 39.068268
v 32.782173 2.000000 39.068268
v 25.500000 -2.000000 44.167294
v 25.500000 2.000000 44.167294
v 17.443031 -2.000000 47.924324
v 17.443031 2.000000 47.924324
v 8.856056 -2.000000 50.225193
v 8.856056 2.000000 50.225193
v 0.000000 -2.000000 51.000000
v 0.000000 2.000000 51.000000
v -8.856056 -2.000000 50.225193
v -8.856056 2.000000 50.225193
v -17.443027 -2.000000 47.924324
v -17.443027 2.000000 47.924324
v -25.500000 -2.000000 44.167294
v -25.500000 2.000000 44.167294
v -32.782169 -2.000000 39.068268
v -32.782169 2.000000 39.068268
v -39.068268 -2.000000 32.782169
v -39.068268 2.000000 32.782169
v -44.167294 -2.000000 25.500000
v -44.167294 2.000000 25.500000
v -47.924324 -2.000000 17.443027
v -47.924324 2.000000 17.443027
v -50.225193 -2.000000 8.856057
v -50.225193 2.000000 8.856057
v -51.000000 -2.000000 0.000000
v -51.000000 2.000000 0.000000
v -50.225193 -2.000000 -8.856057
v -50.225193 2.000000 -8.856057
v -47.924324 -2.000000 -17.443027
v -47.924324 2.000000 -17.443027
v -44.167294 -2.000000 -25.500000
v -44.167294 2.000000 -25.500000
v -39.068268 -2.000000 -32.782169
v -39.068268 2.000000 -32.782169
v -32.782169 -2.000000 -39.068268
v -32.782169 2.000000 -39.068268
v -25.500000 -2.000000 -44.167294
v -25.500000 2.000000 -44.167294
v -17.443027 -2.000000 -47.924324
v -17.443027 2.000000 -47.924324
v -8.856056 -2.000000 -50.225193
v -8.856056 2.000000 -50.225193
v 0.000000 -2.000000 -51.000000
v 0.000000 2.000000 -51.000000
v 8.856056 -2.000000 -50.225193
v 8.856056 2.000000 -50.225193
v 17.443031 -2.000000 -47.924324
v 17.443031 2.000000 -47.924324
v 25.500000 -2.000000 -44.167294
v 25.500000 2.000000 -44.167294
v 32.782173 -2.000000 -39.068268
v 32.782173 2.000000 -39.068268
v 39.068268 -2.000000 -32.782169
v 39.068268 2.000000 -32.782169
v 44.167297 -2.000000 -25.500000
v 44.167297 2.000000 -25.500000
v 47.924324 -2.000000 -17.443027
v 47.924324 2.000000 -17.443027
v 50.225197 -2.000000 -8.856057
v 50.225197 2.000000 -8.856057
v 0.000000 2.000000 0.000000
# 73 vertices

vt 0.983975 0.501077
vt 0.498480 0.501077
vt 0.976599 0.416770
vt 0.954696 0.335023
vt 0.918931 0.258322
vt 0.870391 0.188998
vt 0.810550 0.129156
vt 0.741228 0.080614
vt 0.664529 0.044847
vt 0.582786 0.022944
vt 0.498480 0.015568
vt 0.414175 0.022944
vt 0.332431 0.044847
vt 0.255733 0.080614
vt 0.186410 0.129156
vt 0.126570 0.188998
vt 0.078030 0.258322
vt 0.042265 0.335023
vt 0.020362 0.416770
vt 0.012986 0.501077
vt 0.020362 0.585385
vt 0.042265 0.667131
vt 0.078030 0.743832
vt 0.126570 0.813157
vt 0.186410 0.872999
vt 0.255733 0.921541
vt 0.332431 0.957307
vt 0.414175 0.979211
vt 0.498480 0.986587
vt 0.582786 0.979211
vt 0.664529 0.957307
vt 0.741228 0.921541
vt 0.810550 0.872999
vt 0.870391 0.813157
vt 0.918931 0.743832
vt 0.954696 0.667131
vt 0.976599 0.585385
# 37 texture coordinates

vn 0.000000 1.000000 0.000000
vn 1.000000 0.000000 0.000000
vn 0.984808 0.000000 0.173648
vn 0.939693 0.000000 0.342020
vn 0.866025 0.000000 0.500000
vn 0.766045 0.000000 0.642788
vn 0.642788 0.000000 0.766045
vn 0.500000 0.000000 0.866025
vn 0.342020 0.000000 0.939693
vn 0.173648 0.000000 0.984808
vn 0.000000 0.000000 1.000000
vn -0.173648 0.000000 0.984808
vn -0.342020 0.000000 0.939693
vn -0.500000 0.000000 0.866025
vn -0.642788 0.000000 0.766044
vn -0.766044 0.000000 0.642788
vn -0.866025 0.000000 0.500000
vn -0.939693 0.000000 0.342020
vn -0.984808 0.000000 0.173648
vn -1.000000 0.000000 0.000000
vn -0.984808 0.000000 -0.173648
vn -0.939693 0.000000 -0.342020
vn -0.866025 0.000000 -0.500000
vn -0.766044 0.000000 -0.642788
vn -0.642788 0.000000 -0.766044
vn -0.500000 0.000000 -0.866025
vn -0.342020 0.000000 -0.939693
vn -0.173648 0.000000 -0.984808
vn 0.000000 0.000000 -1.000000
vn 0.173648 0.000000 -0.984808
vn 0.342020 0.000000 -0.939693
vn 0.500000 0.000000 -0.866025
vn 0.642788 0.000000 -0.766045
vn 0.766045 0.000000 -0.642788
vn 0.866025 0.000000 -0.500000
vn 0.939693 0.000000 -0.342020
vn 0.984808 0.000000 -0.173648
# 37 normals

g Cylinder03
usemtl Material01
s 2
f 2/1/1 73/2/1 4/3/1
s 1
f 1/1/2 2/1/2 3/3/3
f 2/1/2 4/3/3 3/3/3
s 2
f 4/3/1 73/2/1 6/4/1
s 1
f 3/3/3 4/3/3 6/4/4
f 3/3/3 6/4/4 5/4/4
s 2
f 6/4/1 73/2/1 8/5/1
s 1
f 5/4/4 6/4/4 7/5/5
f 6/4/4 8/5/5 7/5/5
s 2
f 8/5/1 73/2/1 10/6/1
s 1
f 7/5/5 8/5/5 10/6/6
f 7/5/5 10/6/6 9/6/6
s 2
f 10/6/1 73/2/1 12/7/1
s 1
f 9/6/6 10/6/6 11/7/7
f 10/6/6 12/7/7 11/7/7
s 2
f 12/7/1 73/2/1 14/8/1
s 1
f 11/7/7 12/7/7 14/8/8
f 11/7/7 14/8/8 13/8/8
s 2
f 14/8/1 73/2/1 16/9/1
s 1
f 13/8/8 14/8/8 15/9/9
f 14/8/8 16/9/9 15/9/9
s 2
f 16/9/1 73/2/1 18/10/1
s 1
f 15/9/9 16/9/9 18/10/10
f 15/9/9 18/10/10 17/10/10
s 2
f 18/10/1 73/2/1 20/11/1
s 1
f 17/10/10 18/10/10 19/11/11
f 18/10/10 20/11/11 19/11/11
s 2
f 20/11/1 73/2/1 22/12/1
s 1
f 19/11/11 20/11/11 22/12/12
f 19/11/11 22/12/12 21/12/12
s 2
f 22/12/1 73/2/1 24/13/1
s 1
f 21/12/12 22/12/12 23/13/13
f 22/12/12 24/13/13 23/13/13
s 2
f 24/13/1 73/2/1 26/14/1
s 1
f 23/13/13 24/13/13 26/14/14
f 23/13/13 26/14/14 25/14/14
s 2
f 26/14/1 73/2/1 28/15/1
s 1
f 25/14/14 26/14/14 27/15/15
f 26/14/14 28/15/15 27/15/15
s 2
f 28/15/1 73/2/1 30/16/1
s 1
f 27/15/15 28/15/15 30/16/16
f 27/15/15 30/16/16 29/16/16
s 2
f 30/16/1 73/2/1 32/17/1
s 1
f 29/16/16 30/16/16 31/17/17
f 30/16/16 32/17/17 31/17/17
s 2
f 32/17/1 73/2/1 34/18/1
s 1
f 31/17/17 32/17/17 34/18/18
f 31/17/17 34/18/18 33/18/18
s 2
f 34/18/1 73/2/1 36/19/1
s 1
f 33/18/18 34/18/18 35/19/19
f 34/18/18 36/19/19 35/19/19
s 2
f 36/19/1 73/2/1 38/20/1
s 1
f 35/19/19 36/19/19 38/20/20
f 35/19/19 38/20/20 37/20/20
s 2
f 38/20/1 73/2/1 40/21/1
s 1
f 37/20/20 38/20/20 39/21/21
f 38/20/20 40/21/21 39/21/21
s 2
f 40/21/1 73/2/1 42/22/1
s 1
f 39/21/21 40/21/21 42/22/22
f 39/21/21 42/22/22 41/22/22
s 2
f 42/22/1 73/2/1 44/23/1
s 1
f 41/22/22 42/22/22 43/23/23
f 42/22/22 44/23/23 43/23/23
s 2
f 44/23/1 73/2/1 46/24/1
s 1
f 43/23/23 44/23/23 46/24/24
f 43/23/23 46/24/24 45/24/24
s 2
f 46/24/1 73/2/1 48/25/1
s 1
f 45/24/24 46/24/24 47/25/25
f 46/24/24 48/25/25 47/25/25
s 2
f 48/25/1 73/2/1 50/26/1
s 1
f 47/25/25 48/25/25 50/26/26
f 47/25/25 50/26/26 49/26/26
s 2
f 50/26/1 73/2/1 52/27/1
s 1
f 49/26/26 50/26/26 51/27/27
f 50/26/26 52/27/27 51/27/27
s 2
f 52/27/1 73/2/1 54/28/1
s 1
f 51/27/27 52/27/27 54/28/28
f 51/27/27 54/28/28 53/28/28
s 2
f 54/28/1 73/2/1 56/29/1
s 1
f 53/28/28 54/28/28 55/29/29
f 54/28/28 56/29/29 55/29/29
s 2
f 56/29/1 73/2/1 58/30/1
s 1
f 55/29/29 56/29/29 58/30/30
f 55/29/29 58/30/30 57/30/30
s 2
f 58/30/1 73/2/1 60/31/1
s 1
f 57/30/30 58/30/30 59/31/31
f 58/30/30 60/31/31 59/31/31
s 2
f 60/31/1 73/2/1 62/32/1
s 1
f 59/31/31 60/31/31 62/32/32
f 59/31/31 62/32/32 61/32/32
s 2
f 62/32/1 73/2/1 64/33/1
s 1
f 61/32/32 62/32/32 63/33/33
f 62/32/32 64/33/33 63/33/33
s 2
f 64/33/1 73/2/1 66/34/1
s 1
f 63/33/33 64/33/33 66/34/34
f 63/33/33 66/34/34 65/34/34
s 2
f 66/34/1 73/2/1 68/35/1
s 1
f 65/34/34 66/34/34 67/35/35
f 66/34/34 68/35/35 67/35/35
s 2
f 68/35/1 73/2/1 70/36/1
s 1
f 67/35/35 68/35/35 70/36/36
f 67/35/35 70/36/36 69/36/36
s 2
f 70/36/1 73/2/1 72/37/1
s 1
f 69/36/36 70/36/36 71/37/37
f 70/36/36 72/37/37 71/37/37
s 2
f 72/37/1 73/2/1 2/1/1
s 1
f 71/37/37 72/37/37 2/1/2
f 71/37/37 2/1/2 1/1/2
# 108 triangles in group

# 108 triangles total

