# Wavefront OBJ exported by MilkShape 3D

v 4.498660 -14.997900 -0.000005
v 4.498660 -9.002100 -0.000005
v 3.895949 -14.997900 2.246283
v 3.895949 -9.002100 2.246283
v 2.249331 -9.002100 3.890690
v 2.249331 -14.997900 3.890690
v 0.000000 -14.997900 4.492579
v 0.000000 -9.002100 4.492579
v -2.249330 -9.002100 3.890690
v -2.249330 -14.997900 3.890690
v -3.895948 -14.997900 2.246283
v -3.895948 -9.002100 2.246283
v -4.498660 -9.002100 -0.000005
v -4.498660 -14.997900 -0.000005
v -3.895948 -14.997900 -2.246296
v -3.895948 -9.002100 -2.246296
v -2.249330 -9.002100 -3.890699
v -2.249330 -14.997900 -3.890699
v 0.000000 -14.997900 -4.492579
v 0.000000 -9.002100 -4.492579
v 2.249331 -9.002100 -3.890699
v 2.249331 -14.997900 -3.890699
v 3.895949 -14.997900 -2.246296
v 3.895949 -9.002100 -2.246296
v 2.220691 -9.002100 1.280379
v 2.564236 -9.002100 -0.000005
v 2.564236 -1.002100 -0.000005
v 2.220691 -1.002100 1.280379
v 1.282118 -9.002100 2.217691
v 1.282118 -1.002100 2.217691
v 0.000000 -9.002100 2.560768
v 0.000000 -1.002100 2.560768
v -1.282118 -9.002100 2.217691
v -1.282118 -1.002100 2.217691
v -2.220690 -9.002100 1.280379
v -2.220690 -1.002100 1.280379
v -2.564236 -9.002100 -0.000005
v -2.564236 -1.002100 -0.000005
v -2.220690 -9.002100 -1.280391
v -2.220690 -1.002100 -1.280391
v -1.282118 -9.002100 -2.217700
v -1.282118 -1.002100 -2.217700
v 0.000000 -9.002100 -2.560772
v 0.000000 -1.002100 -2.560772
v 1.282118 -9.002100 -2.217700
v 1.282118 -1.002100 -2.217700
v 2.220691 -9.002100 -1.280391
v 2.220691 -1.002100 -1.280391
v 2.442760 4.997900 1.408418
v 2.820660 4.997900 -0.000005
v 2.820660 14.997900 -0.000005
v 2.442760 14.997900 1.408418
v 1.410330 4.997900 2.439461
v 1.410330 14.997900 2.439461
v 0.000000 4.997900 2.816845
v 0.000000 14.997900 2.816845
v -1.410330 4.997900 2.439461
v -1.410330 14.997900 2.439461
v -2.442760 4.997900 1.408418
v -2.442760 14.997900 1.408418
v -2.820660 4.997900 -0.000005
v -2.820660 14.997900 -0.000005
v -2.442760 4.997900 -1.408429
v -2.442760 14.997900 -1.408429
v -1.410330 4.997900 -2.439470
v -1.410330 14.997900 -2.439470
v 0.000000 4.997900 -2.816849
v 0.000000 14.997900 -2.816849
v 1.410330 4.997900 -2.439470
v 1.410330 14.997900 -2.439470
v 2.442760 4.997900 -1.408429
v 2.442760 14.997900 -1.408429
v 0.000000 14.997900 -0.000005
v 0.641059 -1.002100 -1.108853
v -0.641059 -1.002100 -1.108853
v -0.641059 4.997900 -1.108853
v 0.641059 4.997900 -1.108853
v 1.282118 -1.002100 -0.000005
v 1.282118 4.997900 -0.000005
v 0.641059 -1.002100 1.108843
v 0.641059 4.997900 1.108843
v -0.641059 -1.002100 1.108843
v -0.641059 4.997900 1.108843
v -1.282118 -1.002100 -0.000005
v -1.282118 4.997900 -0.000005
v 0.000000 -9.002100 -0.000005
v 0.000000 -1.002100 -0.000005
v 0.000000 4.997900 -0.000005
# 88 vertices

vt 0.247250 0.000000
vt 0.247250 0.111888
vt 0.164335 0.000000
vt 0.164335 0.111888
vt 0.082503 0.111888
vt 0.082503 0.000000
vt -0.000499 0.000000
vt -0.000499 0.111888
vt 0.996998 0.000000
vt 0.996998 0.111888
vt 0.909995 0.111888
vt 0.909995 0.000000
vt 0.825536 0.000000
vt 0.825536 0.111888
vt 0.741748 0.111888
vt 0.741748 0.000000
vt 0.658832 0.000000
vt 0.658832 0.111888
vt 0.577001 0.111888
vt 0.577001 0.000000
vt 0.494000 0.000000
vt 0.494000 0.111888
vt 0.411996 0.111888
vt 0.411996 0.000000
vt 0.329038 0.000000
vt 0.329038 0.111888
vt 0.247250 0.283592
vt 0.164335 0.283592
vt 0.082503 0.283592
vt -0.000499 0.283592
vt 0.996998 0.283592
vt 0.909995 0.283592
vt 0.825536 0.283592
vt 0.741748 0.283592
vt 0.658832 0.283592
vt 0.577001 0.283592
vt 0.494000 0.283592
vt 0.411996 0.283592
vt 0.329038 0.283592
vt 0.164335 0.428620
vt 0.247250 0.428620
vt 0.247250 0.715000
vt 0.164335 0.715000
vt 0.082503 0.428620
vt 0.082503 0.715000
vt -0.000499 0.428620
vt -0.000499 0.715000
vt 0.909995 0.428620
vt 0.996998 0.428620
vt 0.996998 0.715000
vt 0.909995 0.715000
vt 0.825536 0.428620
vt 0.825536 0.715000
vt 0.741748 0.428620
vt 0.741748 0.715000
vt 0.658832 0.428620
vt 0.658832 0.715000
vt 0.577001 0.428620
vt 0.577001 0.715000
vt 0.494000 0.428620
vt 0.494000 0.715000
vt 0.411996 0.428620
vt 0.411996 0.715000
vt 0.329038 0.428620
vt 0.329038 0.715000
vt 0.450307 0.855326
vt 0.462158 0.899276
vt 0.373416 0.899276
vt 0.417931 0.823487
vt 0.373416 0.811833
vt 0.329477 0.823487
vt 0.297100 0.855326
vt 0.285250 0.899276
vt 0.297100 0.942312
vt 0.329477 0.974152
vt 0.373416 0.985805
vt 0.417931 0.974152
vt 0.450307 0.942312
vt 0.945749 0.811680
vt 0.961058 0.868613
vt 0.847020 0.868613
vt 0.903923 0.769725
vt 0.847020 0.754368
vt 0.789652 0.769725
vt 0.747826 0.811680
vt 0.732517 0.868613
vt 0.747826 0.926301
vt 0.789652 0.968256
vt 0.847020 0.983612
vt 0.903923 0.968256
vt 0.945749 0.926301
vt 0.222750 0.808673
vt 0.232729 0.846204
vt 0.158508 0.846204
vt 0.195485 0.780878
vt 0.158508 0.770704
vt 0.120998 0.780878
vt 0.093734 0.808673
vt 0.083754 0.846204
vt 0.093734 0.884612
vt 0.120998 0.912408
vt 0.158508 0.922582
vt 0.195485 0.912408
vt 0.222750 0.884612
vt 0.688611 0.828767
vt 0.676396 0.873126
vt 0.597143 0.828767
vt 0.643025 0.905943
vt 0.597143 0.917955
vt 0.551853 0.905943
vt 0.518482 0.873126
vt 0.506267 0.828767
vt 0.518482 0.783467
vt 0.551853 0.750649
vt 0.597143 0.738637
vt 0.643025 0.750649
vt 0.676396 0.783467
# 117 texture coordinates

vn 1.000000 0.000000 0.000000
vn 0.865772 0.000000 0.500438
vn 0.499562 0.000000 0.866278
vn 0.000000 0.000000 1.000000
vn -0.499562 0.000000 0.866278
vn -0.865772 0.000000 0.500439
vn -1.000000 0.000000 0.000000
vn -0.865772 0.000000 -0.500439
vn -0.499560 0.000000 -0.866279
vn 0.000000 0.000000 -1.000000
vn 0.499560 0.000000 -0.866279
vn 0.865772 0.000000 -0.500439
vn 0.906884 0.000000 0.421380
vn 0.996024 0.000000 -0.089082
vn 0.996024 0.000000 0.089083
vn 0.817785 0.000000 0.575523
vn 0.574599 0.000000 0.818435
vn 0.420569 0.000000 0.907261
vn 0.088843 0.000000 0.996046
vn -0.088843 0.000000 0.996046
vn -0.420569 0.000000 0.907261
vn -0.574599 0.000000 0.818435
vn -0.817785 0.000000 0.575523
vn -0.906884 0.000000 0.421380
vn -0.996024 0.000000 0.089083
vn -0.996024 0.000000 -0.089082
vn -0.906884 0.000000 -0.421380
vn -0.817785 0.000000 -0.575524
vn -0.574598 0.000000 -0.818436
vn -0.420566 0.000000 -0.907262
vn -0.088841 0.000000 -0.996046
vn 0.088841 0.000000 -0.996046
vn 0.420566 0.000000 -0.907262
vn 0.574598 0.000000 -0.818436
vn 0.817785 0.000000 -0.575524
vn 0.906884 0.000000 -0.421380
vn 0.000000 1.000000 0.000000
vn 0.327169 -0.000000 -0.944966
vn -0.654338 -0.000000 -0.756202
vn -0.327169 -0.000000 -0.944966
vn 0.654338 -0.000000 -0.756202
vn 0.981933 -0.000000 -0.189229
vn 0.981933 0.000000 0.189229
vn 0.654338 0.000000 0.756202
vn 0.327169 0.000000 0.944966
vn -0.327169 0.000000 0.944966
vn -0.654338 0.000000 0.756202
vn -0.981933 0.000000 0.189229
vn -0.981933 -0.000000 -0.189229
vn 0.000000 -1.000000 0.000000
# 50 normals

g Peg-Metal-T3
s 2
f 1/1/1 2/2/1 3/3/2
f 2/2/1 4/4/2 3/3/2
f 3/3/2 4/4/2 5/5/3
f 3/3/2 5/5/3 6/6/3
f 6/6/3 5/5/3 7/7/4
f 5/5/3 8/8/4 7/7/4
f 7/9/4 8/10/4 9/11/5
f 7/9/4 9/11/5 10/12/5
f 10/12/5 9/11/5 11/13/6
f 9/11/5 12/14/6 11/13/6
f 11/13/6 12/14/6 13/15/7
f 11/13/6 13/15/7 14/16/7
f 14/16/7 13/15/7 15/17/8
f 13/15/7 16/18/8 15/17/8
f 15/17/8 16/18/8 17/19/9
f 15/17/8 17/19/9 18/20/9
f 18/20/9 17/19/9 19/21/10
f 17/19/9 20/22/10 19/21/10
f 19/21/10 20/22/10 21/23/11
f 19/21/10 21/23/11 22/24/11
f 22/24/11 21/23/11 23/25/12
f 21/23/11 24/26/12 23/25/12
f 23/25/12 24/26/12 2/2/1
f 23/25/12 2/2/1 1/1/1
f 25/4/13 26/2/14 27/27/15
f 27/27/15 28/28/16 25/4/13
f 29/5/17 25/4/13 28/28/16
f 28/28/16 30/29/18 29/5/17
f 31/8/19 29/5/17 30/29/18
f 30/29/18 32/30/20 31/8/19
f 33/11/21 31/10/19 32/31/20
f 32/31/20 34/32/22 33/11/21
f 35/14/23 33/11/21 34/32/22
f 34/32/22 36/33/24 35/14/23
f 37/15/25 35/14/23 36/33/24
f 36/33/24 38/34/26 37/15/25
f 39/18/27 37/15/25 38/34/26
f 38/34/26 40/35/28 39/18/27
f 41/19/29 39/18/27 40/35/28
f 40/35/28 42/36/30 41/19/29
f 43/22/31 41/19/29 42/36/30
f 42/36/30 44/37/32 43/22/31
f 45/23/33 43/22/31 44/37/32
f 44/37/32 46/38/34 45/23/33
f 47/26/35 45/23/33 46/38/34
f 46/38/34 48/39/36 47/26/35
f 26/2/14 47/26/35 48/39/36
f 48/39/36 27/27/15 26/2/14
f 49/40/13 50/41/14 51/42/15
f 51/42/15 52/43/16 49/40/13
f 53/44/17 49/40/13 52/43/16
f 52/43/16 54/45/18 53/44/17
f 55/46/19 53/44/17 54/45/18
f 54/45/18 56/47/20 55/46/19
f 57/48/21 55/49/19 56/50/20
f 56/50/20 58/51/22 57/48/21
f 59/52/23 57/48/21 58/51/22
f 58/51/22 60/53/24 59/52/23
f 61/54/25 59/52/23 60/53/24
f 60/53/24 62/55/26 61/54/25
f 63/56/27 61/54/25 62/55/26
f 62/55/26 64/57/28 63/56/27
f 65/58/29 63/56/27 64/57/28
f 64/57/28 66/59/30 65/58/29
f 67/60/31 65/58/29 66/59/30
f 66/59/30 68/61/32 67/60/31
f 69/62/33 67/60/31 68/61/32
f 68/61/32 70/63/34 69/62/33
f 71/64/35 69/62/33 70/63/34
f 70/63/34 72/65/36 71/64/35
f 50/41/14 71/64/35 72/65/36
f 72/65/36 51/42/15 50/41/14
s 1
f 52/66/37 51/67/37 73/68/37
f 54/69/37 52/66/37 73/68/37
f 56/70/37 54/69/37 73/68/37
f 58/71/37 56/70/37 73/68/37
f 60/72/37 58/71/37 73/68/37
f 62/73/37 60/72/37 73/68/37
f 64/74/37 62/73/37 73/68/37
f 66/75/37 64/74/37 73/68/37
f 68/76/37 66/75/37 73/68/37
f 70/77/37 68/76/37 73/68/37
f 72/78/37 70/77/37 73/68/37
f 51/67/37 72/78/37 73/68/37
s 2
f 74/39/38 75/37/39 76/60/40
f 76/60/40 77/64/41 74/39/38
f 78/28/42 74/39/38 77/64/41
f 77/64/41 79/40/43 78/28/42
f 80/30/44 78/28/42 79/40/43
f 79/40/43 81/46/45 80/30/44
f 82/33/46 80/31/44 81/49/45
f 81/49/45 83/52/47 82/33/46
f 84/35/48 82/33/46 83/52/47
f 83/52/47 85/56/49 84/35/48
f 75/37/39 84/35/48 85/56/49
f 85/56/49 76/60/40 75/37/39
s 1
f 4/79/37 2/80/37 86/81/37
f 5/82/37 4/79/37 86/81/37
f 8/83/37 5/82/37 86/81/37
f 9/84/37 8/83/37 86/81/37
f 12/85/37 9/84/37 86/81/37
f 13/86/37 12/85/37 86/81/37
f 16/87/37 13/86/37 86/81/37
f 17/88/37 16/87/37 86/81/37
f 20/89/37 17/88/37 86/81/37
f 21/90/37 20/89/37 86/81/37
f 24/91/37 21/90/37 86/81/37
f 2/80/37 24/91/37 86/81/37
f 28/92/37 27/93/37 87/94/37
f 30/95/37 28/92/37 87/94/37
f 32/96/37 30/95/37 87/94/37
f 34/97/37 32/96/37 87/94/37
f 36/98/37 34/97/37 87/94/37
f 38/99/37 36/98/37 87/94/37
f 40/100/37 38/99/37 87/94/37
f 42/101/37 40/100/37 87/94/37
f 44/102/37 42/101/37 87/94/37
f 46/103/37 44/102/37 87/94/37
f 48/104/37 46/103/37 87/94/37
f 27/93/37 48/104/37 87/94/37
f 50/105/50 49/106/50 88/107/50
f 49/106/50 53/108/50 88/107/50
f 53/108/50 55/109/50 88/107/50
f 55/109/50 57/110/50 88/107/50
f 57/110/50 59/111/50 88/107/50
f 59/111/50 61/112/50 88/107/50
f 61/112/50 63/113/50 88/107/50
f 63/113/50 65/114/50 88/107/50
f 65/114/50 67/115/50 88/107/50
f 67/115/50 69/116/50 88/107/50
f 69/116/50 71/117/50 88/107/50
f 71/117/50 50/105/50 88/107/50
# 132 triangles in group

# 132 triangles total

