# Wavefront OBJ exported by MilkShape 3D

v 0.000000 13.500403 19.000000
v 4.011803 11.500403 14.974271
v 0.000000 11.500403 15.502503
v 4.916946 13.500403 18.352592
v 9.499385 13.500403 16.454483
v 7.750707 11.500403 13.425565
v 10.961373 11.500403 10.961933
v 13.434413 13.500403 13.435030
v 16.453867 13.500403 9.500001
v 13.425006 11.500403 7.751266
v 14.973710 11.500403 4.012362
v 18.351974 13.500403 4.917563
v 18.999384 13.500403 0.000001
v 15.501944 11.500403 0.000025
v 14.973710 11.500403 -4.012311
v 18.351974 13.500403 -4.917561
v 16.453867 13.500403 -9.499999
v 13.425006 11.500403 -7.751214
v 10.961373 11.500403 -10.961883
v 13.434413 13.500403 -13.435027
v 9.499385 13.500403 -16.454481
v 7.737637 11.500403 -13.425515
v 4.011803 11.500403 -14.974219
v 4.916946 13.500403 -18.352589
v 0.000000 13.500403 -19.000000
v 0.000000 11.500403 -15.502456
v 2.509767 6.500403 15.168386
v 0.000000 6.500403 15.502503
v 7.750707 6.500403 13.425565
v 4.011803 6.500403 14.974271
v 10.961373 6.500403 10.961933
v 13.425006 6.500403 7.751266
v 14.973710 6.500403 4.012362
v 15.501944 6.500403 0.000025
v 14.973710 6.500403 -4.012311
v 13.425006 6.500403 -7.751214
v 10.961373 6.500403 -10.961883
v 7.737637 6.500403 -13.425515
v 7.737637 10.000403 -13.425515
v 0.000000 6.500403 -15.502456
v 4.011803 6.500403 -14.974219
v 0.000000 -13.499597 15.502503
v 2.511834 -13.499597 15.168386
v 2.513901 -13.499597 6.518355
v 0.000000 -13.499597 -0.000503
v 4.288694 -13.499597 4.791370
v 5.359722 -13.499597 2.205681
v 4.994414 -13.499597 -0.569105
v 3.290657 -13.499597 -2.789486
v -0.000000 -13.499597 -3.860515
v 2.513901 6.500403 12.128000
v 5.452633 6.500403 10.945499
v 9.444786 6.500403 6.953346
v 7.711497 6.500403 9.212212
v 10.906016 6.500403 1.499961
v 10.534377 6.500403 4.322840
v 9.444786 6.500403 -3.953424
v 10.534377 6.500403 -1.322918
v 6.523327 6.500403 -13.930267
v 5.452633 6.500403 -7.945579
v 0.000000 6.500403 -9.406811
v 2.822128 6.500403 -9.035170
v 2.513901 2.500403 6.518355
v 4.288694 2.500403 4.791370
v 5.359722 2.500403 2.205681
v 4.994414 2.500403 -0.569105
v 7.737637 6.500403 -6.212289
v 3.290657 2.500403 -2.789486
v 6.523327 6.500403 -7.133916
v -0.000000 2.500403 -3.860515
v 7.737637 6.500403 -7.133916
v 6.523327 10.000403 -11.633916
v 6.523327 10.000403 -13.930267
v 7.737637 10.000403 -11.633916
v -4.011803 11.500403 14.974271
v -4.916946 13.500403 18.352592
v -9.499385 13.500403 16.454483
v -7.750707 11.500403 13.425565
v -10.961373 11.500403 10.961933
v -13.434413 13.500403 13.435030
v -16.453867 13.500403 9.500001
v -13.425006 11.500403 7.751266
v -14.973710 11.500403 4.012362
v -18.351974 13.500403 4.917563
v -18.999384 13.500403 0.000001
v -15.501944 11.500403 0.000025
v -14.973710 11.500403 -4.012311
v -18.351974 13.500403 -4.917561
v -16.453867 13.500403 -9.499999
v -13.425006 11.500403 -7.751214
v -10.961373 11.500403 -10.961883
v -13.434413 13.500403 -13.435027
v -9.499385 13.500403 -16.454481
v -7.737637 11.500403 -13.425515
v -4.011803 11.500403 -14.974219
v -4.916946 13.500403 -18.352589
v -2.509767 6.500403 15.168386
v -4.011803 6.500403 14.974271
v -7.750707 6.500403 13.425565
v -10.961373 6.500403 10.961933
v -13.425006 6.500403 7.751266
v -14.973710 6.500403 4.012362
v -15.501944 6.500403 0.000025
v -14.973710 6.500403 -4.012311
v -13.425006 6.500403 -7.751214
v -10.961373 6.500403 -10.961883
v -7.737637 6.500403 -13.425515
v -7.737637 10.000403 -13.425515
v -4.011803 6.500403 -14.974219
v -2.511834 -13.499597 15.168386
v -2.513901 -13.499597 6.518355
v -4.288694 -13.499597 4.791370
v -5.359722 -13.499597 2.205681
v -4.994414 -13.499597 -0.569105
v -3.290657 -13.499597 -2.789486
v -2.513901 6.500403 12.128000
v -5.452633 6.500403 10.945499
v -7.711497 6.500403 9.212212
v -9.444786 6.500403 6.953346
v -10.534377 6.500403 4.322840
v -10.906016 6.500403 1.499961
v -10.534377 6.500403 -1.322918
v -9.444786 6.500403 -3.953424
v -6.523327 6.500403 -13.930267
v -5.452633 6.500403 -7.945579
v -2.822128 6.500403 -9.035170
v -2.513901 2.500403 6.518355
v -4.288694 2.500403 4.791370
v -5.359722 2.500403 2.205681
v -4.994414 2.500403 -0.569105
v -3.290657 2.500403 -2.789486
v -7.737637 6.500403 -6.212289
v -6.523327 6.500403 -7.133916
v -7.737637 6.500403 -7.133916
v -6.523327 10.000403 -11.633916
v -6.523327 10.000403 -13.930267
v -7.737637 10.000403 -11.633916
v -1.000605 -0.023407 8.002998
v -1.000605 10.024213 14.502014
v 1.002395 10.024213 14.502014
v 1.002395 -0.023407 8.002998
v 1.002390 -13.500403 15.002014
v -1.000610 -13.500403 15.002014
v -1.000615 -13.500403 8.002995
v 1.002385 -13.500403 8.002995
# 145 vertices

vt 0.500000 0.998500
vt 0.458339 0.958423
vt 0.500000 0.958423
vt 0.458338 0.998500
vt 0.416671 0.998500
vt 0.416672 0.958423
vt 0.375004 0.958423
vt 0.375004 0.998500
vt 0.333336 0.998500
vt 0.333336 0.958423
vt 0.291668 0.958423
vt 0.291668 0.998500
vt 0.250000 0.998500
vt 0.250000 0.958423
vt 0.208332 0.958423
vt 0.208332 0.998500
vt 0.166664 0.998500
vt 0.166664 0.958423
vt 0.124996 0.958423
vt 0.124996 0.998500
vt 0.083329 0.998500
vt 0.083212 0.958423
vt 0.041661 0.958423
vt 0.041662 0.998500
vt 0.000000 0.958423
vt 0.000000 0.998500
vt 0.473903 0.879865
vt 0.500000 0.879865
vt 0.458339 0.879865
vt 0.416672 0.879865
vt 0.375004 0.879865
vt 0.333336 0.879865
vt 0.291668 0.879865
vt 0.250000 0.879865
vt 0.208332 0.879865
vt 0.166664 0.879865
vt 0.124996 0.879865
vt 0.083212 0.879865
vt 0.083212 0.940442
vt 0.069703 0.940442
vt 0.000000 0.879865
vt 0.041661 0.879865
vt 0.500000 0.596019
vt 0.473881 0.596019
vt 0.954802 0.777824
vt 0.954827 0.569398
vt 0.924540 0.785874
vt 0.924540 0.412324
vt 0.976209 0.527786
vt 0.989113 0.465482
vt 0.984712 0.398623
vt 0.964185 0.345123
vt 0.924540 0.319316
vt 0.243468 0.845798
vt 0.263089 0.840727
vt 0.243522 0.766366
vt 0.281910 0.735472
vt 0.311929 0.800266
vt 0.353870 0.735902
vt 0.311417 0.690189
vt 0.334059 0.631175
vt 0.386052 0.652021
vt 0.406283 0.554340
vt 0.348292 0.562451
vt 0.353147 0.488701
vt 0.413183 0.449514
vt 0.406283 0.344689
vt 0.348292 0.414951
vt 0.334059 0.346227
vt 0.386052 0.247007
vt 0.353870 0.163126
vt 0.311759 0.287212
vt 0.295897 0.085575
vt 0.263089 0.058301
vt 0.247548 0.213462
vt 0.210683 0.203753
vt 0.243522 0.619810
vt 0.266706 0.574692
vt 0.280696 0.507139
vt 0.275924 0.434645
vt 0.253669 0.376636
vt 0.295897 0.263134
vt 0.281910 0.241929
vt 0.210683 0.348654
vt 0.311759 0.263134
vt 0.210683 0.044500
vt 0.862135 0.180817
vt 0.815571 0.180817
vt 0.815571 0.004401
vt 0.862135 0.004401
vt 0.782761 0.180817
vt 0.782761 0.004401
vt 0.754384 0.180817
vt 0.754384 0.004401
vt 0.727599 0.180817
vt 0.727599 0.004401
vt 0.695648 0.180817
vt 0.695648 0.004401
vt 0.981562 0.004401
vt 0.981580 0.281650
vt 0.938550 0.281650
vt 0.311759 0.098762
vt 0.685709 0.251406
vt 0.745928 0.324715
vt 0.745928 0.251406
vt 0.685709 0.475965
vt 0.823684 0.491737
vt 0.823684 0.266631
vt 0.763465 0.324715
vt 0.763465 0.266631
vt 0.745928 0.449476
vt 0.763465 0.449476
vt 0.069703 0.879865
vt 0.541662 0.998500
vt 0.541661 0.958423
vt 0.583329 0.998500
vt 0.583328 0.958423
vt 0.624996 0.998500
vt 0.624996 0.958423
vt 0.666664 0.998500
vt 0.666664 0.958423
vt 0.708332 0.998500
vt 0.708332 0.958423
vt 0.750000 0.998500
vt 0.750000 0.958423
vt 0.791668 0.998500
vt 0.791668 0.958423
vt 0.833336 0.998500
vt 0.833336 0.958423
vt 0.875004 0.998500
vt 0.875004 0.958423
vt 0.916671 0.998500
vt 0.916788 0.958423
vt 0.958338 0.998500
vt 0.958338 0.958423
vt 1.000000 0.998500
vt 1.000000 0.958423
vt 0.526097 0.879865
vt 0.541661 0.879865
vt 0.583328 0.879865
vt 0.624996 0.879865
vt 0.666664 0.879865
vt 0.708332 0.879865
vt 0.750000 0.879865
vt 0.791668 0.879865
vt 0.833336 0.879865
vt 0.875004 0.879865
vt 0.916788 0.940442
vt 0.916788 0.879865
vt 0.930297 0.940442
vt 0.958338 0.879865
vt 1.000000 0.879865
vt 0.526119 0.596019
vt 0.894254 0.777824
vt 0.894254 0.569398
vt 0.872871 0.527786
vt 0.859968 0.465482
vt 0.864369 0.398623
vt 0.884896 0.345123
vt 0.177898 0.845798
vt 0.177844 0.766366
vt 0.158278 0.840727
vt 0.109437 0.800266
vt 0.139456 0.735472
vt 0.067496 0.735902
vt 0.035314 0.652021
vt 0.109949 0.690189
vt 0.087307 0.631175
vt 0.015083 0.554340
vt 0.008183 0.449514
vt 0.073074 0.562451
vt 0.068219 0.488701
vt 0.015083 0.344689
vt 0.035314 0.247007
vt 0.073074 0.414951
vt 0.087307 0.346227
vt 0.067496 0.163126
vt 0.125470 0.085575
vt 0.139456 0.241929
vt 0.158278 0.058301
vt 0.173818 0.213462
vt 0.177844 0.619810
vt 0.154660 0.574692
vt 0.140670 0.507139
vt 0.145442 0.434645
vt 0.167698 0.376636
vt 0.109607 0.287212
vt 0.125470 0.263134
vt 0.109607 0.263134
vt 0.528440 0.180817
vt 0.528441 0.004401
vt 0.575005 0.180817
vt 0.575005 0.004401
vt 0.607815 0.180817
vt 0.607815 0.004401
vt 0.636193 0.180817
vt 0.636193 0.004401
vt 0.662978 0.180817
vt 0.662978 0.004401
vt 0.409015 0.004401
vt 0.452026 0.281650
vt 0.408997 0.281650
vt 0.930297 0.879865
vt 0.109607 0.098762
vt 0.823684 0.556359
vt 0.763465 0.629668
vt 0.823684 0.780918
vt 0.763465 0.556359
vt 0.685709 0.796690
vt 0.745928 0.629668
vt 0.685709 0.571584
vt 0.745928 0.571584
vt 0.763465 0.754429
vt 0.745928 0.754429
vt 0.589002 0.387813
vt 0.589002 0.528481
vt 0.603026 0.528481
vt 0.603120 0.387645
vt 0.652123 0.198928
vt 0.648623 0.528340
vt 0.603026 0.857893
vt 0.589002 0.857893
vt 0.539709 0.198985
vt 0.543210 0.528397
vt 0.589002 0.199097
vt 0.603120 0.198928
# 226 texture coordinates

vn -0.021782 0.867884 -0.496289
vn -0.107418 0.867883 -0.485016
vn 0.021782 0.867884 -0.496289
vn -0.149490 0.867883 -0.473743
vn -0.267008 0.867882 -0.418913
vn -0.229285 0.867882 -0.440692
vn -0.335533 0.867881 -0.366333
vn -0.366334 0.867881 -0.335533
vn -0.440694 0.867881 -0.229286
vn -0.418914 0.867881 -0.267009
vn -0.473748 0.867881 -0.149488
vn -0.485021 0.867881 -0.107413
vn -0.496295 0.867881 0.021779
vn -0.496295 0.867881 -0.021780
vn -0.485020 0.867881 0.107413
vn -0.473746 0.867881 0.149488
vn -0.418912 0.867882 0.267007
vn -0.440692 0.867882 0.229285
vn -0.366102 0.867889 0.335765
vn -0.335120 0.868041 0.366332
vn -0.229219 0.868155 0.440189
vn -0.266696 0.868116 0.418626
vn -0.149603 0.868008 0.473477
vn -0.107417 0.867886 0.485011
vn -0.021782 0.867887 0.496284
vn 0.021782 0.867887 0.496284
vn -0.065451 0.000488 -0.997856
vn -0.130988 0.000481 -0.991384
vn 0.026329 0.000234 -0.999653
vn -0.215451 0.000651 -0.976514
vn -0.300924 0.000000 -0.953648
vn -0.461551 0.000000 -0.887114
vn -0.537488 0.000000 -0.843272
vn -0.737428 0.000000 -0.675426
vn -0.675426 0.000000 -0.737428
vn -0.843272 0.000000 -0.537488
vn -0.887114 0.000000 -0.461551
vn -0.976344 0.000000 -0.216222
vn -0.953650 0.000000 -0.300918
vn -0.999038 0.000000 -0.043842
vn -0.999038 0.000000 0.043842
vn -0.953650 0.000000 0.300918
vn -0.976344 0.000000 0.216222
vn -0.887114 0.000000 0.461551
vn -0.843272 0.000000 0.537488
vn -0.658023 0.000000 0.752998
vn -0.736990 0.000000 0.675904
vn -0.607205 0.000000 0.794545
vn -0.536727 0.000000 0.843756
vn -0.461712 -0.000001 0.887030
vn -0.259426 -0.000001 0.965763
vn -0.383828 -0.000001 0.923405
vn 0.043848 0.000000 0.999038
vn -0.043848 0.000000 0.999038
vn -0.301714 0.000000 0.953399
vn 0.000000 -0.000007 -1.000000
vn 0.000000 1.000000 0.000000
vn -0.335502 0.804764 -0.489688
vn -0.227490 0.792858 -0.565354
vn -0.298088 0.798263 -0.523374
vn -0.416197 0.806236 -0.420432
vn -0.491172 0.814738 -0.308144
vn -0.506218 0.811020 -0.293239
vn -0.556408 0.812318 -0.174786
vn -0.574810 0.817432 -0.037397
vn -0.585017 0.811020 -0.000844
vn -0.569257 0.812318 0.126835
vn -0.516799 0.817586 0.253913
vn -0.508273 0.810889 0.290030
vn -0.429182 0.812947 0.393599
vn -0.317859 0.818099 0.479249
vn -0.359075 0.804344 0.473388
vn -0.291635 0.811127 0.506973
vn -0.158766 0.816673 0.554832
vn -0.000000 0.823637 0.567118
vn 0.000000 0.811072 0.584947
vn -0.697388 0.000000 -0.716694
vn -0.864164 0.000000 -0.503210
vn -0.787262 0.000000 -0.616618
vn -0.999126 0.000000 -0.041807
vn -0.975902 0.000000 -0.218210
vn -0.886172 0.000000 0.463356
vn -0.954261 0.000000 0.298976
vn -0.490301 0.000000 0.871553
vn 0.107859 0.000000 0.994166
vn -0.107859 0.000000 0.994166
vn -1.000000 -0.000003 -0.000555
vn 1.000000 0.000000 0.000000
vn 0.000000 0.789352 0.613941
vn 0.107418 0.867883 -0.485016
vn 0.149490 0.867883 -0.473743
vn 0.229285 0.867882 -0.440692
vn 0.267008 0.867882 -0.418913
vn 0.335533 0.867881 -0.366333
vn 0.366334 0.867881 -0.335533
vn 0.418914 0.867881 -0.267009
vn 0.440694 0.867881 -0.229286
vn 0.473748 0.867881 -0.149488
vn 0.485021 0.867881 -0.107413
vn 0.496295 0.867881 -0.021779
vn 0.496295 0.867881 0.021779
vn 0.485020 0.867881 0.107413
vn 0.473746 0.867881 0.149487
vn 0.440692 0.867882 0.229285
vn 0.418912 0.867882 0.267007
vn 0.366331 0.867883 0.335530
vn 0.335081 0.868078 0.366281
vn 0.266479 0.868156 0.418681
vn 0.228950 0.868124 0.440389
vn 0.149619 0.867985 0.473515
vn 0.107618 0.867890 0.484959
vn 0.194590 0.000292 -0.980885
vn 0.130988 0.000286 -0.991384
vn 0.461551 0.000000 -0.887114
vn 0.300168 0.000000 -0.953886
vn 0.537488 0.000000 -0.843272
vn 0.675426 0.000000 -0.737428
vn 0.737428 0.000000 -0.675426
vn 0.843272 0.000000 -0.537488
vn 0.887114 0.000000 -0.461551
vn 0.953650 0.000000 -0.300918
vn 0.976344 0.000000 -0.216222
vn 0.999038 0.000000 -0.043842
vn 0.999038 0.000000 0.043842
vn 0.976344 0.000000 0.216222
vn 0.953650 0.000000 0.300918
vn 0.887114 0.000000 0.461551
vn 0.843272 0.000000 0.537488
vn 0.736990 0.000000 0.675904
vn 0.658023 0.000000 0.752998
vn 0.536727 0.000000 0.843756
vn 0.607205 0.000000 0.794545
vn 0.499688 -0.000001 0.866205
vn 0.383829 -0.000001 0.923404
vn 0.216633 0.000000 0.976253
vn 0.322593 -0.000001 0.946538
vn 0.335502 0.804764 -0.489688
vn 0.298088 0.798263 -0.523374
vn 0.227490 0.792858 -0.565354
vn 0.491172 0.814738 -0.308144
vn 0.416197 0.806236 -0.420432
vn 0.506218 0.811020 -0.293239
vn 0.574810 0.817432 -0.037397
vn 0.556408 0.812318 -0.174786
vn 0.585017 0.811020 -0.000844
vn 0.516799 0.817586 0.253913
vn 0.569257 0.812318 0.126835
vn 0.508273 0.810889 0.290030
vn 0.317859 0.818099 0.479249
vn 0.429182 0.812947 0.393599
vn 0.359075 0.804344 0.473388
vn 0.291635 0.811127 0.506973
vn 0.158766 0.816673 0.554832
vn 0.697388 0.000000 -0.716694
vn 0.787262 0.000000 -0.616618
vn 0.864164 0.000000 -0.503210
vn 0.975902 0.000000 -0.218210
vn 0.999126 0.000000 -0.041807
vn 0.954261 0.000000 0.298976
vn 0.886172 0.000000 0.463356
vn 0.490301 0.000000 0.871553
vn 0.999999 -0.000103 -0.001360
vn 0.000000 0.543111 -0.839661
vn 0.000000 0.021250 0.999774
# 164 normals

g Kicker-Hole-T1
s 2
f 1/1/1 2/2/2 3/3/3
f 4/4/4 2/2/2 1/1/1
f 4/4/4 5/5/5 6/6/6
f 4/4/4 6/6/6 2/2/2
f 5/5/5 7/7/7 6/6/6
f 8/8/8 7/7/7 5/5/5
f 8/8/8 9/9/9 10/10/10
f 8/8/8 10/10/10 7/7/7
f 9/9/9 11/11/11 10/10/10
f 12/12/12 11/11/11 9/9/9
f 12/12/12 13/13/13 14/14/14
f 12/12/12 14/14/14 11/11/11
f 13/13/13 15/15/15 14/14/14
f 16/16/16 15/15/15 13/13/13
f 16/16/16 17/17/17 18/18/18
f 16/16/16 18/18/18 15/15/15
f 17/17/17 19/19/19 18/18/18
f 20/20/20 19/19/19 17/17/17
f 20/20/20 21/21/21 22/22/22
f 20/20/20 22/22/22 19/19/19
f 21/21/21 23/23/23 22/22/22
f 24/24/24 23/23/23 21/21/21
f 23/23/23 24/24/24 26/25/25
f 24/24/24 25/26/26 26/25/25
s 4
f 3/3/27 27/27/28 28/28/29
f 30/29/30 3/3/27 2/2/31
f 2/2/31 29/30/32 30/29/30
f 29/30/32 2/2/31 6/6/33
f 6/6/33 7/7/34 31/31/35
f 31/31/35 29/30/32 6/6/33
f 7/7/34 32/32/36 31/31/35
f 32/32/36 7/7/34 10/10/37
f 10/10/37 11/11/38 33/33/39
f 33/33/39 32/32/36 10/10/37
f 11/11/38 34/34/40 33/33/39
f 34/34/40 11/11/38 14/14/41
f 14/14/41 15/15/42 35/35/43
f 35/35/43 34/34/40 14/14/41
f 15/15/42 36/36/44 35/35/43
f 36/36/44 15/15/42 18/18/45
f 18/18/45 19/19/46 37/37/47
f 37/37/47 36/36/44 18/18/45
f 19/19/46 38/38/48 37/37/47
f 38/38/48 19/19/46 39/39/49
f 22/22/50 23/23/51 73/40/52
f 23/23/51 26/25/53 40/41/54
f 40/41/54 41/42/55 23/23/51
f 30/29/30 27/27/28 3/3/27
f 28/28/29 27/27/28 42/43/56
f 43/44/28 42/43/56 27/27/28
s 3
f 43/45/57 44/46/57 42/47/57
f 44/46/57 45/48/57 42/47/57
f 45/48/57 44/46/57 46/49/57
f 46/49/57 47/50/57 45/48/57
f 47/50/57 48/51/57 45/48/57
f 48/51/57 49/52/57 45/48/57
f 49/52/57 50/53/57 45/48/57
f 27/54/57 30/55/57 51/56/57
f 30/55/57 52/57/57 51/56/57
f 29/58/57 31/59/57 54/60/57
f 31/59/57 53/61/57 54/60/57
f 32/62/57 33/63/57 56/64/57
f 33/63/57 55/65/57 56/64/57
f 34/66/57 35/67/57 58/68/57
f 35/67/57 57/69/57 58/68/57
f 36/70/57 37/71/57 67/72/57
f 59/73/57 41/74/57 62/75/57
f 41/74/57 61/76/57 62/75/57
s 2
f 63/77/58 51/56/59 52/57/60
f 63/77/58 54/60/61 64/78/62
s 3
f 29/58/57 52/57/57 30/55/57
s 2
f 64/78/62 54/60/61 53/61/63
s 3
f 29/58/57 54/60/57 52/57/57
s 2
f 64/78/62 56/64/64 65/79/65
s 3
f 32/62/57 53/61/57 31/59/57
s 2
f 65/79/65 56/64/64 55/65/66
s 3
f 32/62/57 56/64/57 53/61/57
s 2
f 65/79/65 58/68/67 66/80/68
s 3
f 34/66/57 55/65/57 33/63/57
s 2
f 66/80/68 58/68/67 57/69/69
s 3
f 34/66/57 58/68/57 55/65/57
s 2
f 66/80/68 67/72/70 68/81/71
s 3
f 36/70/57 57/69/57 35/67/57
s 2
f 69/82/72 60/83/73 68/81/71
s 3
f 36/70/57 67/72/57 57/69/57
s 2
f 68/81/71 62/75/74 70/84/75
s 3
f 71/85/57 67/72/57 37/71/57
s 2
f 70/84/75 62/75/74 61/76/76
s 3
f 59/73/57 62/75/57 60/83/57
f 40/86/57 61/76/57 41/74/57
s 2
f 54/60/61 63/77/58 52/57/60
f 56/64/64 64/78/62 53/61/63
f 58/68/67 65/79/65 55/65/66
f 66/80/68 57/69/69 67/72/70
f 62/75/74 68/81/71 60/83/73
s 4
f 63/87/77 64/88/78 46/89/79
f 46/89/79 44/90/77 63/87/77
f 64/88/78 65/91/80 47/92/81
f 47/92/81 46/89/79 64/88/78
f 65/91/80 66/93/82 48/94/83
f 48/94/83 47/92/81 65/91/80
f 66/93/82 68/95/84 49/96/46
f 49/96/46 48/94/83 66/93/82
f 68/95/84 70/97/85 50/98/86
f 50/98/86 49/96/46 68/95/84
s 5
f 43/99/87 27/100/87 51/101/87
f 63/87/87 43/99/87 51/101/87
f 44/90/87 43/99/87 63/87/87
s 3
f 60/83/57 69/82/57 59/73/57
s 2
f 67/72/70 69/82/72 68/81/71
s 4
f 23/23/51 41/42/55 73/40/52
s 3
f 38/102/57 71/85/57 37/71/57
f 69/82/57 67/72/57 71/85/57
s 5
f 59/103/87 72/104/87 73/105/87
f 72/104/87 59/103/87 69/106/87
f 71/107/88 38/108/88 74/109/88
f 39/110/88 74/109/88 38/108/88
s 1
f 69/111/89 71/112/89 74/109/89
f 74/109/89 72/104/89 69/111/89
s 3
f 72/104/57 74/109/57 39/110/57
f 73/105/57 72/104/57 39/110/57
s 4
f 22/22/50 39/39/49 19/19/46
f 39/39/49 22/22/50 73/40/52
f 41/42/55 59/113/52 73/40/52
s 2
f 76/114/90 3/3/3 75/115/91
f 76/114/90 1/1/1 3/3/3
f 76/114/90 75/115/91 77/116/92
f 77/116/92 75/115/91 78/117/93
f 80/118/94 78/117/93 79/119/95
f 80/118/94 77/116/92 78/117/93
f 80/118/94 79/119/95 81/120/96
f 81/120/96 79/119/95 82/121/97
f 84/122/98 82/121/97 83/123/99
f 84/122/98 81/120/96 82/121/97
f 84/122/98 83/123/99 85/124/100
f 85/124/100 83/123/99 86/125/101
f 88/126/102 86/125/101 87/127/103
f 88/126/102 85/124/100 86/125/101
f 88/126/102 87/127/103 89/128/104
f 89/128/104 87/127/103 90/129/105
f 92/130/106 90/129/105 91/131/107
f 92/130/106 89/128/104 90/129/105
f 92/130/106 91/131/107 93/132/108
f 93/132/108 91/131/107 94/133/109
f 96/134/110 94/133/109 95/135/111
f 96/134/110 93/132/108 94/133/109
f 95/135/111 25/136/26 96/134/110
f 95/135/111 26/137/25 25/136/26
s 4
f 75/115/112 3/3/27 28/28/29
f 28/28/29 97/138/113 75/115/112
f 78/117/114 98/139/115 99/140/116
f 98/139/115 78/117/114 75/115/112
f 79/119/117 99/140/116 100/141/118
f 99/140/116 79/119/117 78/117/114
f 82/121/119 100/141/118 101/142/120
f 100/141/118 82/121/119 79/119/117
f 82/121/119 101/142/120 83/123/121
f 102/143/122 83/123/121 101/142/120
f 86/125/123 102/143/122 103/144/124
f 102/143/122 86/125/123 83/123/121
f 86/125/123 103/144/124 87/127/125
f 104/145/126 87/127/125 103/144/124
f 90/129/127 104/145/126 105/146/128
f 104/145/126 90/129/127 87/127/125
f 90/129/127 105/146/128 91/131/129
f 106/147/130 91/131/129 105/146/128
f 108/148/131 106/147/130 107/149/132
f 106/147/130 108/148/131 94/133/133
f 94/133/133 108/148/131 136/150/134
f 26/137/53 109/151/135 40/152/54
f 109/151/135 26/137/53 95/135/136
f 98/139/115 75/115/112 97/138/113
f 28/28/29 42/43/56 97/138/113
f 110/153/113 97/138/113 42/43/56
s 3
f 110/154/57 42/47/57 111/155/57
f 111/155/57 42/47/57 45/48/57
f 45/48/57 112/156/57 111/155/57
f 112/156/57 45/48/57 113/157/57
f 113/157/57 45/48/57 114/158/57
f 114/158/57 45/48/57 115/159/57
f 115/159/57 45/48/57 50/53/57
f 97/160/57 116/161/57 98/162/57
f 99/163/57 116/161/57 117/164/57
f 99/163/57 117/164/57 100/165/57
f 101/166/57 118/167/57 119/168/57
f 101/166/57 119/168/57 102/169/57
f 103/170/57 120/171/57 121/172/57
f 103/170/57 121/172/57 104/173/57
f 105/174/57 122/175/57 123/176/57
f 105/174/57 123/176/57 106/177/57
f 124/178/57 125/179/57 109/180/57
f 40/86/57 126/181/57 61/76/57
s 2
f 127/182/137 117/164/138 116/161/139
f 127/182/137 128/183/140 118/167/141
s 3
f 99/163/57 98/162/57 116/161/57
s 2
f 128/183/140 119/168/142 118/167/141
s 3
f 100/165/57 117/164/57 118/167/57
s 2
f 128/183/140 129/184/143 120/171/144
s 3
f 101/166/57 100/165/57 118/167/57
s 2
f 129/184/143 121/172/145 120/171/144
s 3
f 102/169/57 119/168/57 120/171/57
s 2
f 129/184/143 130/185/146 122/175/147
s 3
f 103/170/57 102/169/57 120/171/57
s 2
f 130/185/146 123/176/148 122/175/147
s 3
f 104/173/57 121/172/57 122/175/57
s 2
f 130/185/146 131/186/149 132/187/150
s 3
f 105/174/57 104/173/57 122/175/57
s 2
f 133/188/151 131/186/149 125/179/152
s 3
f 106/177/57 123/176/57 132/187/57
s 2
f 131/186/149 70/84/75 126/181/153
s 3
f 134/189/57 106/177/57 132/187/57
s 2
f 70/84/75 61/76/76 126/181/153
s 3
f 109/180/57 125/179/57 126/181/57
f 40/86/57 109/180/57 126/181/57
s 2
f 118/167/141 117/164/138 127/182/137
f 120/171/144 119/168/142 128/183/140
f 122/175/147 121/172/145 129/184/143
f 130/185/146 132/187/150 123/176/148
f 126/181/153 125/179/152 131/186/149
s 4
f 127/190/154 111/191/154 128/192/155
f 112/193/156 128/192/155 111/191/154
f 128/192/155 112/193/156 129/194/157
f 113/195/158 129/194/157 112/193/156
f 129/194/157 113/195/158 130/196/159
f 114/197/160 130/196/159 113/195/158
f 130/196/159 114/197/160 131/198/130
f 115/199/161 131/198/130 114/197/160
f 131/198/130 115/199/161 70/97/85
f 50/98/86 70/97/85 115/199/161
s 5
f 110/200/88 116/201/88 97/202/162
f 127/190/88 116/201/88 110/200/88
f 111/191/88 127/190/88 110/200/88
s 3
f 125/179/57 124/178/57 133/188/57
s 2
f 132/187/150 131/186/149 133/188/151
s 4
f 109/151/135 95/135/136 124/203/134
s 3
f 107/204/57 106/177/57 134/189/57
f 133/188/57 134/189/57 132/187/57
s 5
f 124/205/88 135/206/88 133/207/88
f 135/206/88 124/205/88 136/208/88
f 134/209/87 137/210/87 107/211/87
f 108/212/87 107/211/87 137/210/87
s 1
f 133/213/89 135/206/89 134/214/89
f 137/210/89 134/214/89 135/206/89
s 3
f 135/206/57 136/208/57 137/210/57
f 136/208/57 108/212/57 137/210/57
s 4
f 94/133/133 91/131/129 106/147/130
f 94/133/133 136/150/134 95/135/136
f 124/203/134 95/135/136 136/150/134
s 7
f 138/215/163 139/216/163 140/217/163
f 141/218/163 138/215/163 140/217/163
s 5
f 142/219/88 141/218/88 140/220/88
s 1
f 142/221/164 140/217/164 139/216/164
f 143/222/164 142/221/164 139/216/164
s 5
f 138/215/87 143/223/87 139/224/87
f 138/215/87 144/225/87 143/223/87
s 6
f 141/218/56 145/226/56 138/215/56
f 138/215/56 145/226/56 144/225/56
s 5
f 142/219/88 145/226/88 141/218/88
# 258 triangles in group

# 258 triangles total

